<?xml version="1.0" encoding="iso-8859-1"?>
<!-- Generator: Adobe Illustrator 22.1.0, SVG Export Plug-In . SVG Version: 6.00 Build 0)  -->
<svg xmlns="http://www.w3.org/2000/svg" xmlns:xlink="http://www.w3.org/1999/xlink" version="1.1" id="Layer_3" x="0px" y="0px" viewBox="0 0 64 64" style="enable-background:new 0 0 64 64;" xml:space="preserve" width="512" height="512">
<g>
	<g>
		<rect x="22" y="33" style="fill:#9D8980;" width="20" height="12"/>
	</g>
	<g>
		<path style="fill:#B9ABA5;" d="M36,34.5c0-0.511-0.049-1.009-0.119-1.5H22v11.39c1.096,0.388,2.271,0.61,3.5,0.61    C31.299,45,36,40.299,36,34.5z"/>
	</g>
	<g>
		<circle style="fill:#7B909B;" cx="32" cy="39" r="2"/>
	</g>
	<g>
		<path style="fill:#7B909B;" d="M36,33v-6c0-2.209-1.791-4-4-4h0c-2.209,0-4,1.791-4,4v6h-4v-6c0-4.418,3.582-8,8-8h0    c4.418,0,8,3.582,8,8v6H36z"/>
	</g>
	<g>
		<circle style="fill:#EBB652;" cx="20" cy="4" r="2"/>
	</g>
	<g>
		<circle style="fill:#EBB652;" cx="28" cy="4" r="2"/>
	</g>
	<g>
		<circle style="fill:#EBB652;" cx="36" cy="8" r="2"/>
	</g>
	<g>
		<circle style="fill:#EBB652;" cx="44" cy="4" r="2"/>
	</g>
	<g>
		<circle style="fill:#EBB652;" cx="60" cy="20" r="2"/>
	</g>
	<g>
		<circle style="fill:#EBB652;" cx="60" cy="28" r="2"/>
	</g>
	<g>
		<circle style="fill:#EBB652;" cx="56" cy="36" r="2"/>
	</g>
	<g>
		<circle style="fill:#EBB652;" cx="60" cy="44" r="2"/>
	</g>
	<g>
		<circle style="fill:#EBB652;" cx="44" cy="60" r="2"/>
	</g>
	<g>
		<circle style="fill:#EBB652;" cx="36" cy="60" r="2"/>
	</g>
	<g>
		<circle style="fill:#EBB652;" cx="28" cy="56" r="2"/>
	</g>
	<g>
		<circle style="fill:#EBB652;" cx="20" cy="60" r="2"/>
	</g>
	<g>
		<circle style="fill:#EBB652;" cx="4" cy="44" r="2"/>
	</g>
	<g>
		<circle style="fill:#EBB652;" cx="4" cy="36" r="2"/>
	</g>
	<g>
		<circle style="fill:#EBB652;" cx="8" cy="28" r="2"/>
	</g>
	<g>
		<circle style="fill:#EBB652;" cx="4" cy="20" r="2"/>
	</g>
	<g>
		<path d="M20,7c-1.654,0-3-1.346-3-3s1.346-3,3-3s3,1.346,3,3S21.654,7,20,7z M20,3c-0.552,0-1,0.449-1,1s0.448,1,1,1s1-0.449,1-1    S20.552,3,20,3z"/>
	</g>
	<g>
		<path d="M28,7c-1.654,0-3-1.346-3-3s1.346-3,3-3s3,1.346,3,3S29.654,7,28,7z M28,3c-0.552,0-1,0.449-1,1s0.448,1,1,1s1-0.449,1-1    S28.552,3,28,3z"/>
	</g>
	<g>
		<path d="M36,11c-1.654,0-3-1.346-3-3s1.346-3,3-3s3,1.346,3,3S37.654,11,36,11z M36,7c-0.552,0-1,0.449-1,1s0.448,1,1,1    s1-0.449,1-1S36.552,7,36,7z"/>
	</g>
	<g>
		<path d="M44,7c-1.654,0-3-1.346-3-3s1.346-3,3-3s3,1.346,3,3S45.654,7,44,7z M44,3c-0.552,0-1,0.449-1,1s0.448,1,1,1s1-0.449,1-1    S44.552,3,44,3z"/>
	</g>
	<g>
		<rect x="27" y="6" width="2" height="14"/>
	</g>
	<g>
		<path d="M25,27h-2V13.414l-3.707-3.707C19.105,9.52,19,9.265,19,9V6h2v2.586l3.707,3.707C24.895,12.48,25,12.735,25,13V27z"/>
	</g>
	<g>
		<rect x="35" y="10" width="2" height="10"/>
	</g>
	<g>
		<path d="M36.352,14.937l-0.703-1.873L43,10.307V6h2v5c0,0.417-0.259,0.79-0.648,0.937L36.352,14.937z"/>
	</g>
	<g>
		<path d="M60,23c-1.654,0-3-1.346-3-3s1.346-3,3-3s3,1.346,3,3S61.654,23,60,23z M60,19c-0.552,0-1,0.449-1,1s0.448,1,1,1    s1-0.449,1-1S60.552,19,60,19z"/>
	</g>
	<g>
		<path d="M60,31c-1.654,0-3-1.346-3-3s1.346-3,3-3s3,1.346,3,3S61.654,31,60,31z M60,27c-0.552,0-1,0.449-1,1s0.448,1,1,1    s1-0.449,1-1S60.552,27,60,27z"/>
	</g>
	<g>
		<path d="M56,39c-1.654,0-3-1.346-3-3s1.346-3,3-3s3,1.346,3,3S57.654,39,56,39z M56,35c-0.552,0-1,0.449-1,1s0.448,1,1,1    s1-0.449,1-1S56.552,35,56,35z"/>
	</g>
	<g>
		<path d="M60,47c-1.654,0-3-1.346-3-3s1.346-3,3-3s3,1.346,3,3S61.654,47,60,47z M60,43c-0.552,0-1,0.449-1,1s0.448,1,1,1    s1-0.449,1-1S60.552,43,60,43z"/>
	</g>
	<g>
		<rect x="40" y="27" width="18" height="2"/>
	</g>
	<g>
		<path d="M51,25H39v-2h11.586l3.707-3.707C54.48,19.105,54.734,19,55,19h3v2h-2.586l-3.707,3.707C51.52,24.895,51.266,25,51,25z"/>
	</g>
	<g>
		<rect x="42" y="35" width="12" height="2"/>
	</g>
	<g>
		<path d="M58,45h-5c-0.417,0-0.79-0.259-0.937-0.649l-3-8l1.873-0.702L53.693,43H58V45z"/>
	</g>
	<g>
		<path d="M44,63c-1.654,0-3-1.346-3-3s1.346-3,3-3s3,1.346,3,3S45.654,63,44,63z M44,59c-0.552,0-1,0.449-1,1s0.448,1,1,1    s1-0.449,1-1S44.552,59,44,59z"/>
	</g>
	<g>
		<path d="M36,63c-1.654,0-3-1.346-3-3s1.346-3,3-3s3,1.346,3,3S37.654,63,36,63z M36,59c-0.552,0-1,0.449-1,1s0.448,1,1,1    s1-0.449,1-1S36.552,59,36,59z"/>
	</g>
	<g>
		<path d="M28,59c-1.654,0-3-1.346-3-3s1.346-3,3-3s3,1.346,3,3S29.654,59,28,59z M28,55c-0.552,0-1,0.449-1,1s0.448,1,1,1    s1-0.449,1-1S28.552,55,28,55z"/>
	</g>
	<g>
		<path d="M20,63c-1.654,0-3-1.346-3-3s1.346-3,3-3s3,1.346,3,3S21.654,63,20,63z M20,59c-0.552,0-1,0.449-1,1s0.448,1,1,1    s1-0.449,1-1S20.552,59,20,59z"/>
	</g>
	<g>
		<rect x="35" y="46" width="2" height="12"/>
	</g>
	<g>
		<path d="M45,58h-2v-2.586l-3.707-3.707C39.105,51.52,39,51.265,39,51v-6h2v5.586l3.707,3.707C44.895,54.48,45,54.735,45,55V58z"/>
	</g>
	<g>
		<rect x="27" y="46" width="2" height="8"/>
	</g>
	<g>
		<path d="M21,58h-2v-5c0-0.417,0.259-0.79,0.648-0.937l8-3l0.703,1.873L21,53.693V58z"/>
	</g>
	<g>
		<path d="M4,47c-1.654,0-3-1.346-3-3s1.346-3,3-3s3,1.346,3,3S5.654,47,4,47z M4,43c-0.552,0-1,0.449-1,1s0.448,1,1,1s1-0.449,1-1    S4.552,43,4,43z"/>
	</g>
	<g>
		<path d="M4,39c-1.654,0-3-1.346-3-3s1.346-3,3-3s3,1.346,3,3S5.654,39,4,39z M4,35c-0.552,0-1,0.449-1,1s0.448,1,1,1s1-0.449,1-1    S4.552,35,4,35z"/>
	</g>
	<g>
		<path d="M8,31c-1.654,0-3-1.346-3-3s1.346-3,3-3s3,1.346,3,3S9.654,31,8,31z M8,27c-0.552,0-1,0.449-1,1s0.448,1,1,1s1-0.449,1-1    S8.552,27,8,27z"/>
	</g>
	<g>
		<path d="M4,23c-1.654,0-3-1.346-3-3s1.346-3,3-3s3,1.346,3,3S5.654,23,4,23z M4,19c-0.552,0-1,0.449-1,1s0.448,1,1,1s1-0.449,1-1    S4.552,19,4,19z"/>
	</g>
	<g>
		<rect x="6" y="35" width="16" height="2"/>
	</g>
	<g>
		<path d="M9,45H6v-2h2.586l3.707-3.707C12.48,39.105,12.734,39,13,39h9v2h-8.586l-3.707,3.707C9.52,44.895,9.266,45,9,45z"/>
	</g>
	<g>
		<path d="M13.063,28.351L10.307,21H6v-2h5c0.417,0,0.79,0.259,0.937,0.649l3,8L13.063,28.351z"/>
	</g>
	<g>
		<rect x="10" y="27" width="14" height="2"/>
	</g>
	<g>
		<path d="M42,46H22c-0.553,0-1-0.448-1-1V33c0-0.552,0.447-1,1-1h20c0.553,0,1,0.448,1,1v12C43,45.552,42.553,46,42,46z M23,44h18    V34H23V44z"/>
	</g>
	<g>
		<path d="M41,33h-2v-6c0-3.86-3.141-7-7-7s-7,3.14-7,7v6h-2v-6c0-4.962,4.037-9,9-9s9,4.038,9,9V33z"/>
	</g>
	<g>
		<path d="M37,33h-2v-6c0-1.654-1.346-3-3-3s-3,1.346-3,3v6h-2v-6c0-2.757,2.243-5,5-5s5,2.243,5,5V33z"/>
	</g>
	<g>
		<path d="M32,42c-1.654,0-3-1.346-3-3s1.346-3,3-3s3,1.346,3,3S33.654,42,32,42z M32,38c-0.552,0-1,0.449-1,1s0.448,1,1,1    s1-0.449,1-1S32.552,38,32,38z"/>
	</g>
	<g>
		<rect x="31" y="41" width="2" height="4"/>
	</g>
</g>
</svg>
