<svg height="512pt" viewBox="-1 0 512 512" width="512pt" xmlns="http://www.w3.org/2000/svg"><path d="m431.148438 459.949219c-.8125-.320313-1.679688-.667969-2.503907-.996094v25.617187c0 5.046876-4.097656 9.144532-9.144531 9.144532s-9.140625-4.097656-9.140625-9.144532v-32.921874c-8.21875-3.347657-16.757813-6.921876-25.492187-10.816407l-70.199219 71.167969h195.191406c-5.519531-22.125-32.28125-33.726562-78.710937-52.050781zm0 0"/><path d="m254.929688 475.429688c-19.417969 0-37.824219-4.226563-54.355469-9.335938l36.207031 45.90625h36.296875l36.207031-45.90625c-16.539062 5.109375-34.945312 9.335938-54.355468 9.335938zm0 0"/><path d="m245.789062 402.285156h18.285157v18.285156h-18.285157zm0 0"/><path d="m38.8125 153.835938c45.191406-43.296876 124.625-71.550782 216.117188-71.550782 91.421874 0 170.808593 28.222656 216.007812 71.386719-10.832031-20.113281-50.128906-87.707031-108.714844-127.113281-25.839844-17.371094-56.703125-26.558594-89.261718-26.558594h-36.070313c-32.566406 0-63.433594 9.179688-89.261719 26.558594-58.960937 39.652344-98.285156 107.660156-108.816406 127.277344zm0 0"/><path d="m255.707031 173.714844c-.007812 0-.007812 0-.019531 0-14.855469 0-28.304688 5.605468-38.625 15.789062-10.808594 10.652344-17 25.371094-17 40.382813 0 5.039062 4.097656 9.144531 9.144531 9.144531 5.039063 0 9.144531-4.105469 9.144531-9.144531 0-10.148438 4.203126-20.121094 11.546876-27.355469 6.875-6.792969 15.777343-10.523438 25.058593-10.523438 19.410157.265626 36.253907 17.71875 36.527344 37.359376.183594 12.691406-6.097656 24.382812-16.769531 31.277343-17.316406 11.164063-28.945313 35.015625-28.945313 59.355469v18.558594c0 5.039062 4.09375 9.144531 9.140625 9.144531 5.039063 0 9.144532-4.105469 9.144532-9.144531v-18.558594c0-15.269531 7.058593-35.292969 20.570312-43.996094 16-10.332031 25.410156-27.859375 25.144531-46.902344-.402343-29.613281-25.171875-54.976562-54.0625-55.386718zm0 0"/><path d="m413.039062 386.230469 27.867188-28.25c3.855469-3.914063 7.488281-8.011719 10.953125-12.226563.554687-.675781 1.078125-1.371094 1.625-2.046875 24.914063-31.222656 39.003906-69.886719 39.050781-108.679687-2.257812-74.003906-108.835937-134.457032-237.597656-134.457032-128.757812 0-235.351562 60.445313-237.601562 134.738282.054687 38.546875 14.144531 77.167968 39.046874 108.378906.550782.6875 1.078126 1.382812 1.636719 2.066406 3.464844 4.214844 7.097657 8.3125 10.953125 12.226563l27.859375 28.25 87.230469 88.4375-102.445312-129.890625c-29-29.59375-45.757813-69.339844-45.988282-109.121094 2.789063-70.035156 115.648438-116.800781 219.308594-116.800781 103.664062 0 216.523438 46.765625 219.300781 116.382812-.226562 40.191407-16.976562 79.933594-45.988281 109.53125l-102.445312 129.890625zm0 0"/><path d="m414.867188 332.304688c25.902343-26.273438 40.875-61.53125 41.085937-96.75-2.257813-56.144532-107.996094-98.410157-201.023437-98.410157-93.027344 0-198.765626 42.265625-201.023438 98.832031.210938 34.796876 15.1875 70.0625 41.089844 96.328126.234375.238281.464844.496093.664062.761718l84.042969 106.566406 3.179687 1.136719c21.488282 7.679688 45.84375 16.382813 72.039063 16.382813 26.203125 0 50.558594-8.703125 72.035156-16.382813l3.183594-1.136719 84.039063-106.566406c.21875-.277344.449218-.523437.6875-.761718zm-132.507813 97.410156c0 5.046875-4.097656 9.140625-9.144531 9.140625h-36.570313c-5.046875 0-9.144531-4.09375-9.144531-9.140625v-36.570313c0-5.046875 4.097656-9.144531 9.144531-9.144531h36.570313c5.046875 0 9.144531 4.097656 9.144531 9.144531zm12.1875-138.339844c-6.609375 4.257812-12.1875 17.371094-12.1875 28.625v18.558594c0 15.125-12.308594 27.429687-27.429687 27.429687-15.121094 0-27.429688-12.304687-27.429688-27.429687v-18.558594c0-30.300781 14.996094-60.332031 37.3125-74.722656 5.339844-3.449219 8.484375-9.308594 8.394531-15.664063-.136719-9.636719-9.050781-19.207031-18.011719-19.328125 0 0-.007812 0-.019531 0-4.660156 0-9.003906 1.867188-12.433593 5.257813-3.875 3.820312-6.097657 9.050781-6.097657 14.335937 0 15.121094-12.304687 27.429688-27.429687 27.429688-15.121094 0-27.425782-12.308594-27.425782-27.429688 0-19.867187 8.179688-39.332031 22.445313-53.394531 13.769531-13.578125 31.789063-21.054687 50.722656-21.054687h1.015625c38.519532.539062 71.542969 34.15625 72.089844 73.417968.347656 25.386719-12.175781 48.757813-33.515625 62.527344zm0 0"/><path d="m124.992188 440.832031c-8.730469 3.894531-17.261719 7.46875-25.492188 10.816407v32.921874c0 5.046876-4.09375 9.144532-9.140625 9.144532s-9.144531-4.097656-9.144531-9.144532v-25.617187c-.820313.328125-1.691406.667969-2.503906.996094-46.425782 18.324219-73.1875 29.925781-78.710938 52.050781h195.191406zm0 0"/></svg>