<svg height="522pt" viewBox="0 -5 522.66667 522" width="522pt" xmlns="http://www.w3.org/2000/svg"><path d="m448 448.332031v32c-.035156 11.769531-9.566406 21.300781-21.332031 21.335938h-213.335938c23.566407 0 42.667969-19.105469 42.667969-42.667969v-64h192zm0 0" fill="#d0d7df"/><path d="m21.332031 459c0 23.5625 19.105469 42.667969 42.667969 42.667969h-10.667969c-23.5625 0-42.664062-19.105469-42.664062-42.667969v-405.332031c0-23.574219 29.757812-42.667969 53.332031-42.667969h21.332031v256h-21.332031c-23.5625 0-42.667969 19.101562-42.667969 42.667969zm0 0" fill="#d0d7df"/><path d="m85.332031 267v-256h234.667969c-23.5625 0-42.667969 19.101562-42.667969 42.667969v149.332031c0 23.5625 19.105469 42.667969 42.667969 42.667969h10.667969v53.332031l53.332031-53.332031h64v149.332031h-192v-85.332031c0-23.566407-19.101562-42.667969-42.667969-42.667969h-10.664062v-53.332031l-53.335938 53.332031zm0 0" fill="#a4b0c0"/><path d="m437.332031 117.667969v21.332031h-85.332031v-21.332031c0-23.566407 19.101562-42.667969 42.667969-42.667969 23.5625 0 42.664062 19.101562 42.664062 42.667969zm0 0" fill="#35dc86"/><path d="m437.332031 139v-21.332031c0-23.566407-19.101562-42.667969-42.664062-42.667969-23.566407 0-42.667969 19.101562-42.667969 42.667969v21.332031zm74.667969-85.332031v149.332031c0 23.5625-19.101562 42.667969-42.667969 42.667969h-85.332031l-53.332031 53.332031v-53.332031h-10.667969c-23.5625 0-42.667969-19.105469-42.667969-42.667969v-149.332031c0-23.566407 19.105469-42.667969 42.667969-42.667969h149.332031c23.566407 0 42.667969 19.101562 42.667969 42.667969zm0 0" fill="#35dc86"/><path d="m168.851562 435.851562c-12.203124 12.21875-30.566406 15.875-46.515624 9.265626-15.953126-6.609376-26.347657-22.183594-26.335938-39.449219v-32c0-23.566407 19.101562-42.667969 42.667969-42.667969 23.5625 0 42.664062 19.101562 42.664062 42.667969v32c-.019531 11.3125-4.503906 22.160156-12.480469 30.183593zm0 0" fill="#fed049"/><path d="m168.851562 435.851562c7.976563-8.023437 12.460938-18.871093 12.480469-30.183593v-32c0-23.566407-19.101562-42.667969-42.664062-42.667969-23.566407 0-42.667969 19.101562-42.667969 42.667969v32c-.011719 17.265625 10.382812 32.839843 26.335938 39.449219 15.949218 6.609374 34.3125 2.953124 46.515624-9.265626zm87.148438 12.480469v10.667969c0 23.5625-19.101562 42.667969-42.667969 42.667969h-149.332031c-23.5625 0-42.667969-19.105469-42.667969-42.667969v-149.332031c0-23.566407 19.105469-42.667969 42.667969-42.667969h85.332031l53.335938-53.332031v53.332031h10.664062c23.566407 0 42.667969 19.101562 42.667969 42.667969zm0 0" fill="#fed049"/><path d="m192 405.667969v-32c0-29.457031-23.878906-53.335938-53.332031-53.335938-29.457031 0-53.335938 23.878907-53.335938 53.335938v32c.015625 19.617187 10.800781 37.648437 28.082031 46.9375 17.28125 9.289062 38.265626 8.339843 54.640626-2.46875l16.402343 16.40625 15.085938-15.085938-16.386719-16.394531c5.777344-8.714844 8.855469-18.941406 8.84375-29.394531zm-53.332031 32c-17.675781 0-32-14.328125-32-32v-32c0-17.675781 14.324219-32 32-32 17.671875 0 32 14.324219 32 32v32c-.03125 4.75-1.125 9.433593-3.203125 13.707031l-10.578125-10.582031-15.085938 15.082031 10.574219 10.570312c-4.269531 2.085938-8.957031 3.1875-13.707031 3.222657zm0 0"/><path d="m394.667969 64.332031c-29.441407.035157-53.300781 23.894531-53.335938 53.335938v74.664062h21.335938v-42.664062h64v42.664062h21.332031v-74.664062c.015625-14.152344-5.601562-27.722657-15.605469-37.730469-10.003906-10.003906-23.578125-15.617188-37.726562-15.605469zm-32 64v-10.664062c0-17.675781 14.324219-32 32-32 17.671875 0 32 14.324219 32 32v10.664062zm0 0"/><path d="m117.332031 43h85.335938v21.332031h-85.335938zm0 0"/><path d="m117.332031 85.667969h85.335938v21.332031h-85.335938zm0 0"/><path d="m117.332031 128.332031h64v21.335938h-64zm0 0"/><path d="m469.332031.332031h-405.332031c-29.589844 0-64 23.308594-64 53.335938v192h21.332031v-192c0-16.480469 24.042969-32 42.667969-32h10.667969v234.664062h-10.667969c-29.441406.035157-53.296875 23.894531-53.332031 53.335938v149.332031c.035156 29.441406 23.890625 53.296875 53.332031 53.332031h362.667969c17.671875 0 32-14.324219 32-32v-224h10.664062c29.441407-.035156 53.300781-23.890625 53.335938-53.332031v-149.332031c-.035157-29.441407-23.894531-53.300781-53.335938-53.335938zm-405.332031 490.667969c-17.671875 0-32-14.328125-32-32v-149.332031c0-17.675781 14.328125-32 32-32h85.332031c2.828125 0 5.542969-1.125 7.542969-3.125l35.125-35.128907v27.585938c0 5.890625 4.777344 10.667969 10.667969 10.667969h10.664062c17.675781 0 32 14.324219 32 32v149.332031c0 17.671875-14.324219 32-32 32zm362.667969 0h-170.945313c7.058594-9.175781 10.90625-20.421875 10.945313-32h106.664062v-21.332031h-106.664062v-32h170.664062v32h-42.664062v21.332031h42.664062v21.332031c0 5.890625-4.773437 10.667969-10.664062 10.667969zm10.664062-106.667969h-170.664062v-74.664062c-.035157-29.441407-23.894531-53.300781-53.335938-53.335938v-42.664062c0-4.316407-2.597656-8.203125-6.582031-9.855469-3.988281-1.648438-8.574219-.738281-11.625 2.3125l-50.207031 50.207031h-48.917969v-234.664062h181.609375c-7.058594 9.175781-10.902344 20.421875-10.941406 32v149.332031c.035156 29.441406 23.890625 53.296875 53.332031 53.332031v42.667969c0 4.3125 2.597656 8.203125 6.582031 9.855469 1.292969.539062 2.683594.816406 4.085938.8125 2.828125 0 5.539062-1.125 7.539062-3.125l50.207031-50.210938h48.917969zm64-181.332031c0 17.671875-14.324219 32-32 32h-85.332031c-2.828125 0-5.542969 1.125-7.542969 3.125l-35.125 35.125v-27.582031c0-5.890625-4.773437-10.667969-10.664062-10.667969h-10.667969c-17.671875 0-32-14.328125-32-32v-149.332031c0-17.675781 14.328125-32 32-32h149.332031c17.675781 0 32 14.324219 32 32zm0 0"/></svg>