<svg id="Capa_1" enable-background="new 0 0 511.997 511.997" height="512" viewBox="0 0 511.997 511.997" width="512" xmlns="http://www.w3.org/2000/svg"><g><g><path clip-rule="evenodd" d="m242.608 374.286h-119.849c0-96.171-93.232-108.585-93.118-211.927.113-98.551 76.557-155.862 153.028-154.814 26.504-.368 55.308 7.596 78.631 20.549 1.534.85 5.852 3.628 7.386 4.535 39.003 25.651 66.955 70.151 67.04 129.73.113 103.342-93.118 115.756-93.118 211.927z" fill="#fdb440" fill-rule="evenodd"/></g><g><path clip-rule="evenodd" d="m242.608 374.286c0-96.171 93.232-108.585 93.118-211.927-.085-59.579-28.038-104.078-67.04-129.73-1.534-.907-5.852-3.685-7.386-4.535-23.322-12.953-52.127-20.918-78.631-20.549-6.107-.085-12.243.227-18.322.879 21.362 2.353 43.122 9.467 61.501 19.671 1.534.85 5.88 3.628 7.386 4.535 39.003 25.651 66.984 70.151 67.04 129.73.114 103.342-93.118 115.756-93.118 211.927h35.452z" fill="#fe9737" fill-rule="evenodd"/></g><g><path clip-rule="evenodd" d="m207.156 386.672v-148.72c24.629-9.127 42.326-32.85 42.326-60.486 0-22.08-11.278-41.665-28.35-53.286-17.925-12.216-14.459 7.086-14.459 10.317v38.746c0 13.52-10.653 24.716-24.004 25.623-13.351-.907-24.004-12.103-24.004-25.623v-38.746c0-3.231 3.466-22.533-14.459-10.317-17.073 11.621-28.322 31.207-28.322 53.286 0 27.635 17.669 51.359 42.298 60.486v148.72z" fill="#c1eaf4" fill-rule="evenodd"/></g><g><path clip-rule="evenodd" d="m219.683 159.865c0 25.283-7.414 47.278-27.498 57.821-8.295 4.365-5.994 5.782-5.994 16.468v140.132h20.964v-136.334c24.629-9.127 42.326-32.85 42.326-60.486 0-22.08-11.278-41.665-28.35-53.286-8.068-5.499-11.817-4.62-13.465-1.672 7.557 10.544 12.017 23.469 12.017 37.357z" fill="#99cfe0" fill-rule="evenodd"/></g><g><path clip-rule="evenodd" d="m182.669 504.498c31.645 0 57.297-25.594 57.297-57.141l-57.297-12.074-57.268 12.074c0 31.546 25.651 57.141 57.268 57.141z" fill="#737a93" fill-rule="evenodd"/></g><g><path clip-rule="evenodd" d="m260.902 429.075c0-10.034-8.437-16.213-18.294-18.253l-59.939-12.556-59.91 12.556c-9.857 2.041-18.322 8.22-18.322 18.253 0 10.062 8.238 18.282 18.322 18.282h2.642 114.565 2.642c10.056-.001 18.294-8.22 18.294-18.282z" fill="#d7d0d6" fill-rule="evenodd"/></g><g><path clip-rule="evenodd" d="m260.902 392.539c0-10.034-8.238-18.253-18.294-18.253h-35.452-20.964-28.009-35.423c-10.084 0-18.322 8.22-18.322 18.253 0 10.062 8.238 18.282 18.322 18.282h119.849c10.055 0 18.293-8.219 18.293-18.282z" fill="#d7d0d6" fill-rule="evenodd"/></g><g><path clip-rule="evenodd" d="m260.902 429.075c0-10.034-8.238-18.253-18.294-18.253h-119.849c-9.261 0-16.959 6.916-18.152 15.816 2.216-.964 4.687-1.502 7.272-1.502h119.849c10.056 0 18.294 8.22 18.294 18.253 0 .822-.057 1.644-.17 2.438 6.505-2.807 11.05-9.27 11.05-16.752z" fill="#baafb9" fill-rule="evenodd"/></g><g><path clip-rule="evenodd" d="m260.902 392.539c0-10.034-8.238-18.253-18.294-18.253h-119.849c-9.261 0-16.959 6.916-18.152 15.816 2.216-.964 4.687-1.502 7.272-1.502h119.849c10.056 0 18.294 8.22 18.294 18.253 0 .822-.057 1.644-.17 2.438 6.505-2.806 11.05-9.269 11.05-16.752z" fill="#baafb9" fill-rule="evenodd"/></g><g><path clip-rule="evenodd" d="m239.966 447.356h-114.565c0 5.47.767 10.799 2.216 15.816h77.352c5.909 0 5.625-1.077 5.056 5.13-1.221 13.662-7.272 25.963-16.419 35.146 26.418-5.073 46.36-28.258 46.36-56.092z" fill="#606b82" fill-rule="evenodd"/></g><g><path clip-rule="evenodd" d="m363.65 61.994c-7.812 1.984-15.198 5.074-21.959 9.07l-6.335-6.321c-3.011-3.033-7.982-3.033-10.993 0l-18.379 18.338c-3.011 3.004-3.011 7.936 0 10.969l6.335 6.321c-4.005 6.746-7.102 14.115-9.09 21.91h-8.977c-4.261 0-7.755 3.486-7.755 7.766v25.906c0 4.28 3.494 7.766 7.755 7.766h8.977c1.988 7.795 5.085 15.164 9.119 21.91l-6.363 6.321c-3.011 3.033-3.011 7.965 0 10.969l18.379 18.338c3.011 3.033 7.982 3.033 10.993 0l6.335-6.321c6.761 3.996 14.147 7.086 21.959 9.07v8.957c0 4.252 3.494 7.766 7.784 7.766h25.992c4.261 0 7.755-3.515 7.755-7.766v-8.957c7.84-1.984 15.198-5.074 21.959-9.07l6.363 6.321c3.011 3.033 7.954 3.033 10.993 0l18.351-18.338c3.04-3.004 3.04-7.936 0-10.969l-6.335-6.321c4.034-6.746 7.102-14.115 9.119-21.91h8.948c4.289 0 7.784-3.486 7.784-7.766v-25.906c0-4.28-3.494-7.766-7.784-7.766h-8.948c-2.017-7.795-5.085-15.164-9.119-21.91l6.335-6.321c3.04-3.033 3.04-7.965 0-10.969l-18.351-18.338c-3.04-3.033-7.982-3.033-10.993 0l-6.363 6.321c-6.761-3.996-14.147-7.086-21.959-9.07v-8.957c0-4.252-3.494-7.766-7.755-7.766h-25.992c-4.289 0-7.784 3.515-7.784 7.766v8.957z" fill="#737a93" fill-rule="evenodd"/></g><g><path clip-rule="evenodd" d="m334.817 143c0 27.323 22.214 49.488 49.599 49.488 27.413 0 49.599-22.165 49.599-49.488s-22.186-49.488-49.599-49.488c-27.385 0-49.599 22.165-49.599 49.488z" fill="#e8eaea" fill-rule="evenodd"/></g><g><path clip-rule="evenodd" d="m400.948 135.461c0 20.634-3.38 39.936-9.232 56.489 23.947-3.515 42.298-24.092 42.298-48.95 0-23.214-16.022-42.714-37.639-48.043 2.954 12.557 4.573 26.219 4.573 40.504z" fill="#d4d6d8" fill-rule="evenodd"/></g><g><path clip-rule="evenodd" d="m396.375 94.958c21.618 5.329 37.639 24.829 37.639 48.043 0 24.858-18.351 45.435-42.298 48.95-6.534 18.509-16.192 33.531-27.782 43.083.937 3.26 3.949 5.697 7.499 5.697h25.992c4.261 0 7.755-3.515 7.755-7.766v-8.957c10.397-2.636 14.8-7.199 19.288-7.568 2.585-.198 5.227 1.02 9.033 4.818 3.011 3.033 7.954 3.033 10.993 0l18.351-18.338c3.04-3.004 3.04-7.936 0-10.969l-6.335-6.321c4.034-6.746 7.102-14.115 9.119-21.91h8.948c4.289 0 7.784-3.486 7.784-7.766v-25.906c0-4.28-3.494-7.766-7.784-7.766h-8.948c-2.017-7.795-5.085-15.164-9.119-21.91l6.335-6.321c3.04-3.033 3.04-7.965 0-10.969l-18.351-18.338c-3.04-3.033-7.982-3.033-10.993 0l-6.363 6.321c-6.761-3.996-14.147-7.086-21.959-9.07v-8.957c0-4.252-3.466-7.71-7.698-7.766h-.057-24.144c10.312 12.385 18.408 29.618 23.095 49.686z" fill="#606b82" fill-rule="evenodd"/></g><g><path d="m474.58 114.777h-3.33c-1.48-4.52-3.3-8.9-5.44-13.09l2.33-2.33c2.9-2.89 4.5-6.74 4.49-10.84-.01-4.08-1.61-7.91-4.48-10.74l-18.36-18.34c-2.89-2.89-6.73-4.52-10.84-4.47-4.08.01-7.9 1.61-10.73 4.46l-2.39 2.37c-4.24-2.16-8.64-3.98-13.15-5.44v-3.32c0-8.42-6.84-15.27-15.25-15.27h-26c-8.42 0-15.28 6.85-15.28 15.27v3.32c-4.51 1.46-8.9 3.28-13.14 5.43l-2.33-2.33c-2.88-2.89-6.72-4.49-10.82-4.49-2.05 0-4.04.4-5.86 1.16-1.83.76-3.5 1.87-4.93 3.31l-5.76 5.75c-10.95-15.21-24.71-28.44-40.5-38.82-2.491-1.745-5.214-3.343-7.87-4.83-25.22-14.01-55.21-21.85-82.23-21.49-41.23-1-81.82 14.16-111.34 41.66-3.03 2.83-3.2 7.57-.37 10.6 2.82 3.04 7.57 3.2 10.6.38 26.7-24.88 63.48-38.59 100.88-37.64h.29c24.55-.34 51.84 6.8 74.89 19.61 2.419 1.308 4.686 2.911 7.04 4.33 15.27 10.07 27.99 22.5 37.94 36.85l-1.95 1.94c-5.94 5.92-5.95 15.59 0 21.58l2.34 2.34c-2.15 4.22-3.97 8.6-5.43 13.08h-3.35c-8.41 0-15.25 6.85-15.25 15.27v25.91c0 8.42 6.84 15.26 15.25 15.26h3.35c1.47 4.5 3.28 8.87 5.44 13.09l-2.38 2.36c-5.92 5.96-5.91 15.64.03 21.56l13.91 13.88c-8.6 16.97-20.35 31.11-32.44 45.65-21.95 26.41-44.61 53.67-46.87 99.03h-20.63v-123.82c25.52-11.65 42.32-37.34 42.32-65.5 0-23.77-11.82-46-31.62-59.48-2.98-2.03-12.03-8.2-19.78-3.73-7.59 4.38-6.83 14.44-6.47 19.28.03.41.06 39.71.06 39.71 0 9.35-7.21 17.2-16.5 18.09-9.3-.89-16.5-8.74-16.5-18.09 0 0 .03-39.3.06-39.71.36-4.84 1.11-14.9-6.48-19.28-7.74-4.47-16.79 1.7-19.76 3.72-19.79 13.47-31.61 35.71-31.61 59.49 0 28.16 16.8 53.85 42.3 65.5v40.02c0 4.15 3.36 7.5 7.5 7.5s7.5-3.35 7.5-7.5v-45.03c0-3.14-1.95-5.95-4.89-7.04-22.37-8.29-37.41-29.77-37.41-53.45 0-18.81 9.37-36.41 25.05-47.09 1.23-.84 2.22-1.42 3-1.82.01 1.02-.26 44.69-.26 44.69 0 17.38 13.61 31.92 30.99 33.1.34.02.68.02 1.02 0 17.38-1.18 30.99-15.72 30.99-33.1 0 0-.27-43.67-.26-44.69.78.4 1.77.98 3 1.82 15.7 10.69 25.07 28.29 25.07 47.09 0 23.67-15.04 45.16-37.43 53.45-2.94 1.09-4.89 3.9-4.89 7.04v128.83h-33.98v-49.16c0-4.14-3.36-7.5-7.5-7.5s-7.5 3.36-7.5 7.5v49.16h-20.61c-2.26-45.36-24.92-72.62-46.87-99.03-23.71-28.53-46.11-55.49-46.06-105.44-.18-31.35 7.34-59.27 22.36-82.99 2.21-3.5 1.17-8.13-2.33-10.35-3.5-2.21-8.13-1.17-10.35 2.33-16.57 26.18-24.88 56.83-24.68 91.04-.06 55.34 25.15 85.67 49.53 115 21.33 25.66 41.53 49.96 43.44 90.59-10.52 3.26-18.17 13.06-18.17 24.6 0 7.14 2.92 13.61 7.63 18.28-4.71 4.67-7.63 11.13-7.63 18.26 0 12.7 9.24 23.27 21.36 25.39 3.56 32.31 31.06 57.53 64.37 57.53 33.32 0 60.84-25.22 64.4-57.53 12.1-2.12 21.33-12.7 21.33-25.39 0-7.13-2.92-13.59-7.62-18.26 4.7-4.67 7.62-11.14 7.62-18.28 0-11.54-7.64-21.33-18.14-24.59 1.91-40.63 22.11-64.94 43.44-90.6 11.93-14.35 24.05-28.94 33.32-46.58.93.18 1.88.27 2.84.27 4.1 0 7.94-1.6 10.79-4.47l2.36-2.35c4.24 2.15 8.63 3.96 13.14 5.43v3.32c0 8.42 6.86 15.26 15.28 15.26h26c8.41 0 15.25-6.84 15.25-15.26v-3.32c4.51-1.46 8.9-3.28 13.15-5.44l2.35 2.34c2.87 2.88 6.69 4.48 10.77 4.49h.04c4.08 0 7.92-1.59 10.81-4.47l18.32-18.31c2.9-2.87 4.5-6.69 4.51-10.78s-1.59-7.94-4.49-10.84l-2.33-2.33c2.14-4.19 3.96-8.56 5.44-13.09h3.33c8.43 0 15.28-6.84 15.28-15.26v-25.91c0-8.42-6.85-15.27-15.28-15.27zm-291.91 382.22c-24.89 0-45.57-18.31-49.2-42.14h98.43c-3.64 23.83-24.33 42.14-49.23 42.14zm59.94-57.14h-119.85c-5.97 0-10.82-4.84-10.82-10.78 0-5.93 4.85-10.76 10.82-10.76h119.85c5.95 0 10.79 4.83 10.79 10.76 0 5.94-4.84 10.78-10.79 10.78zm10.79-47.32c0 5.95-4.84 10.78-10.79 10.78h-119.85c-5.97 0-10.82-4.83-10.82-10.78 0-5.93 4.85-10.75 10.82-10.75h119.85c5.95 0 10.79 4.82 10.79 10.75zm221.46-236.581c0 .12-.12.26-.28.26h-8.95c-3.42 0-6.4 2.32-7.26 5.62-1.84 7.1-4.63 13.81-8.29 19.94-1.77 2.96-1.3 6.73 1.13 9.16l6.34 6.32c.02.03.08.08.08.19 0 .09-.04.12-.08.17l-18.35 18.33c-.02.02-.09.09-.21.09-.11 0-.15-.04-.2-.1l-6.37-6.32c-2.42-2.41-6.16-2.87-9.1-1.14-6.28 3.72-13 6.49-19.98 8.26-3.33.84-5.66 3.84-5.66 7.27v8.96c0 .11-.14.26-.25.26h-26c-.15 0-.28-.16-.28-.26v-8.96c0-3.43-2.33-6.42-5.65-7.27-7.01-1.78-13.73-4.56-19.99-8.26-1.19-.7-2.51-1.04-3.82-1.04-1.93 0-3.85.75-5.3 2.19l-.53.53-5.83 5.82c-.07.07-.24.1-.37-.03l-8.69-8.67-9.69-9.67c-.07-.07-.09-.26-.01-.34l6.36-6.32c2.45-2.42 2.92-6.21 1.15-9.17-3.71-6.21-6.5-12.91-8.28-19.91-.85-3.32-3.84-5.65-7.27-5.65h-8.98c-.11 0-.25-.12-.25-.26v-25.91c0-.14.14-.27.25-.27h8.98c3.43 0 6.42-2.32 7.27-5.64 1.67-6.58 4.23-12.89 7.63-18.82.2-.38.42-.75.64-1.12 1.75-2.95 1.28-6.71-1.15-9.13l-6.31-6.3c-.12-.11-.1-.31-.03-.38l10.35-10.32 8.06-8.04c.07-.08.24-.1.37.03l6.33 6.32c2.42 2.41 6.17 2.88 9.12 1.14 6.26-3.7 12.98-6.47 19.99-8.25 3.32-.85 5.65-3.84 5.65-7.27v-8.96c0-.1.13-.27.28-.27h26c.11 0 .25.15.25.27v8.96c0 3.43 2.33 6.42 5.65 7.27 7.01 1.78 13.73 4.55 19.99 8.25 2.94 1.74 6.68 1.27 9.1-1.13l6.4-6.36c.02-.02.06-.06.17-.06.12 0 .19.06.2.08l18.38 18.37c.02.02.06.05.06.14 0 .11-.06.16-.08.18l-6.34 6.33c-2.43 2.43-2.9 6.2-1.13 9.15 3.66 6.14 6.45 12.85 8.29 19.94.86 3.31 3.84 5.62 7.26 5.62h8.95c.16 0 .28.15.28.27z"/><path d="m384.42 86.016c-20.22 0-38.01 10.53-48.15 26.39-5.67 8.84-8.95 19.34-8.95 30.59 0 .69.26 5.74.5 7.54 1.56 11.77 6.73 22.41 14.37 30.78 10.45 11.46 25.51 18.67 42.23 18.67 31.48 0 57.09-25.56 57.09-56.99 0-31.42-25.61-56.98-57.09-56.98zm0 98.971c-21.21 0-38.79-15.7-41.68-36.07-2.99-16.67 6.26-48.17 41.68-47.9 23.209.177 42.09 18.83 42.09 41.98 0 23.16-18.88 41.99-42.09 41.99z"/></g></g></svg>