<?xml version="1.0" encoding="iso-8859-1"?>
<!-- Generator: Adobe Illustrator 19.0.0, SVG Export Plug-In . SVG Version: 6.00 Build 0)  -->
<svg version="1.1" id="Capa_1" xmlns="http://www.w3.org/2000/svg" xmlns:xlink="http://www.w3.org/1999/xlink" x="0px" y="0px"
	 viewBox="0 0 512 512" style="enable-background:new 0 0 512 512;" xml:space="preserve">
<g>
	<g>
		<path d="M477.957,342.455h-33.541V100.271c0-8.284-6.716-15-15-15H323.292V15.248c0-8.284-6.716-15-15-15H203.708
			c-8.284,0-15,6.716-15,15V85.27H82.584c-8.284,0-15,6.716-15,15v242.185H34.043C15.271,342.455,0,357.727,0,376.498v59.473
			c0,18.771,15.271,34.042,34.043,34.042h33.541v11.739h-6.298c-8.284,0-15,6.716-15,15s6.716,15,15,15h42.596
			c8.284,0,15-6.716,15-15s-6.716-15-15-15h-6.298v-11.739h33.542c18.771,0,34.043-15.271,34.043-34.042v-59.473
			c0-18.771-15.271-34.042-34.043-34.042H97.584v-24.867V115.271h91.124v15.716v103.158c0,8.284,6.716,15,15,15H241v93.311h-33.542
			c-18.771,0-34.042,15.271-34.042,34.042v59.473c0,18.771,15.271,34.042,34.042,34.042H241v11.739h-6.298c-8.284,0-15,6.716-15,15
			s6.716,15,15,15h42.596c8.284,0,15-6.716,15-15s-6.716-15-15-15H271v-11.739h33.542c18.771,0,34.042-15.271,34.042-34.042v-59.473
			c0-18.771-15.271-34.042-34.042-34.042H271v-93.311h37.292c8.284,0,15-6.716,15-15V130.987v-15.716h91.124v202.318v24.867h-33.542
			c-18.771,0-34.043,15.271-34.043,34.042v59.473c0,18.771,15.271,34.042,34.043,34.042h33.542v11.739h-6.298
			c-8.284,0-15,6.716-15,15s6.716,15,15,15h42.596c8.284,0,15-6.716,15-15s-6.716-15-15-15h-6.298v-11.739h33.541
			c18.771,0,34.043-15.271,34.043-34.042v-59.473C512,357.727,496.729,342.455,477.957,342.455z M131.126,372.456
			c2.229-0.001,4.043,1.813,4.043,4.042v59.473c0,2.229-1.813,4.042-4.043,4.042H34.043c-2.229,0-4.043-1.813-4.043-4.042v-59.473
			c0-2.229,1.813-4.042,4.043-4.042H131.126z M304.542,372.456c2.229-0.001,4.042,1.813,4.042,4.042v59.473
			c0,2.229-1.813,4.042-4.042,4.042h-97.084c-2.229,0-4.042-1.813-4.042-4.042v-59.473c0-2.229,1.813-4.042,4.042-4.042H304.542z
			 M293.292,170.84h-11.565c-8.284,0-15,6.716-15,15s6.716,15,15,15h11.565v18.305h-74.584V30.248h74.584V170.84z M482,435.97
			c0,2.229-1.813,4.042-4.043,4.042h-97.083c-2.229,0-4.043-1.813-4.043-4.042v-59.473c0-2.229,1.813-4.042,4.043-4.042h97.083
			c2.229,0,4.043,1.813,4.043,4.042V435.97z"/>
	</g>
</g>
<g>
</g>
<g>
</g>
<g>
</g>
<g>
</g>
<g>
</g>
<g>
</g>
<g>
</g>
<g>
</g>
<g>
</g>
<g>
</g>
<g>
</g>
<g>
</g>
<g>
</g>
<g>
</g>
<g>
</g>
</svg>
