<svg height="512pt" viewBox="-30 0 512 512" width="512pt" xmlns="http://www.w3.org/2000/svg"><path d="m288.402344 398.167969c-.003906-4.140625-3.359375-7.496094-7.503906-7.496094l-15.152344.011719s-.007813-4.863282-.019532-5.199219c9.179688-3.925781 15.703126-12.460937 17.085938-22.347656l2.023438-11.175781c.738281-4.074219-1.964844-7.976563-6.042969-8.71875-4.070313-.734376-7.976563 1.96875-8.714844 6.042968 0 0-2.09375 11.570313-2.113281 11.6875-.558594 4.214844-3.078125 7.917969-6.71875 10.011719-1.066406-1.675781-2.3125-3.25-3.726563-4.691406 0 0 .027344-.828125.023438-1.242188-.003907-8.316406-3.246094-16.128906-9.128907-22.007812-5.878906-5.871094-13.6875-9.101563-22.015624-9.101563-8.316407.003906-16.128907 3.246094-22.003907 9.128906-5.878906 5.882813-9.113281 13.699219-9.105469 22.015626 0 .417968.027344 1.257812.027344 1.257812-1.394531 1.4375-2.632812 3.015625-3.695312 4.695312-3.65625-2.082031-6.191406-5.792968-6.757813-10.015624-.015625-.117188-2.125-11.6875-2.125-11.6875-.742187-4.074219-4.652343-6.773438-8.722656-6.03125-4.074219.742187-6.777344 4.648437-6.03125 8.726562l2.039063 11.171875c1.390624 9.886719 7.925781 18.414063 17.109374 22.324219-.011718.335937-.015624 5.199218-.015624 5.199218l-15.152344.011719c-4.144532 0-7.5 3.363281-7.496094 7.503907.003906 4.140624 3.359375 7.496093 7.503906 7.496093l15.152344-.011719s0 3.363282.003906 3.496094c-9.171875 3.929688-15.6875 12.457032-17.070312 22.339844 0 0-2.023438 11.171875-2.023438 11.175781-.828125 4.550781 2.789063 8.863281 7.417969 8.835938 3.589844-.015625 6.683594-2.652344 7.339844-6.160157l2.054687-11.335937c.023438-.117187.039063-.234375.054688-.351563.46875-3.523437 2.308594-6.691406 5.027344-8.859374 3.703124 10.347656 10.910156 19.328124 20.5625 25.089843 4.921874 2.9375 10.441406 4.40625 15.957031 4.40625 5.53125 0 11.058593-1.476562 15.988281-4.425781 9.644531-5.773438 16.839844-14.761719 20.535156-25.113281 2.71875 2.164062 4.5625 5.332031 5.035156 8.851562.015626.117188.035157.234375.054688.351563 0 0 2.066406 11.324218 2.070312 11.335937.679688 3.738281 4.273438 6.40625 8.039063 6.109375 4.339844-.339844 7.492187-4.539062 6.714844-8.800781l-2.039063-11.175781c-1.390625-9.878906-7.917968-18.398438-17.09375-22.320313 0-.128906 0-3.492187 0-3.492187l15.152344-.011719c4.140625 0 7.5-3.363281 7.496094-7.503906zm-42.527344-20.632813c-.300781.796875-1.070312 1.46875-1.960938 1.46875 0 0-34.964843.023438-34.964843.023438-.976563 0-1.628907-.46875-1.9375-1.394532-.308594-.941406-.0625-1.71875.734375-2.3125 2.410156-1.796874 5.285156-2.746093 8.308594-2.746093 0 0 20.734374-.011719 20.738281-.011719 3.121093 0 6.066406 1.003906 8.523437 2.902344.007813.003906.015625.011718.023438.015625.011718.007812.019531.015625.03125.027343.675781.53125.769531 1.328126.503906 2.027344zm-19.46875-28.597656h.011719c4.304687 0 8.351562 1.675781 11.398437 4.71875 1.242188 1.242188 2.257813 2.65625 3.027344 4.183594-1.328125-.183594-2.683594-.277344-4.050781-.277344-.003907 0-.007813-.003906-.011719 0l-20.734375.011719c-1.375 0-2.730469.097656-4.066406.28125.765625-1.527344 1.78125-2.941407 3.023437-4.183594 3.046875-3.050781 7.09375-4.730469 11.402344-4.734375zm-24.28125 59.878906-.007812-16.171875c2.09375.894531 4.402343 1.378907 6.832031 1.378907h.007812l9.964844-.003907.035156 43.488281c-.261719-.136718.253907.148438 0 0-11.417969-6.632812-16.824219-17.167968-16.832031-28.691406zm31.832031 28.6875-.035156-43.492187 10-.007813c2.421875 0 4.730469-.488281 6.824219-1.390625l.011718 16.171875c.003907 11.527344-6.070312 22.695313-16.800781 28.71875zm0 0"/><path d="m446.976562 400.6875-15.921874-27.558594c-2.074219-3.589844-6.660157-4.816406-10.246094-2.742187-3.585938 2.070312-4.816406 6.660156-2.742188 10.246093l15.921875 27.558594c4.75 8.222656 5.320313 18.328125 1.527344 27.035156l-17.953125 41.199219c-.128906-.140625-3.566406-5.1875-12.394531-5.375h-4.585938l16.105469-149.90625c.515625-4.804687-1.039062-9.621093-4.269531-13.214843-3.226563-3.589844-7.847657-5.648438-12.683594-5.648438l-160.679687.09375c6.992187-2.0625 16.011718-5.210938 23.328124-9.40625 11.054688-6.339844 24.351563-8.460938 37.445313-5.964844l48.019531 9.140625c4.066406.773438 7.996094-1.894531 8.769532-5.964843.777343-4.070313-1.894532-7.996094-5.964844-8.769532l-29.808594-5.675781c19.847656-21.824219 34.59375-46.089844 43.910156-72.296875 3.148438-8.859375 7.191406-19.035156 7.1875-28.566406-.019531-32.027344-18.0625-74.859375-47.09375-111.777344-31.367187-39.886719-67.300781-62.882812-98.585937-63.09375h-.109375c-31.285156.246094-67.195313 23.285156-98.515625 63.207031-28.988281 36.949219-46.984375 79.800781-46.96875 111.835938.011719 9.390625 4.136719 19.632812 7.25 28.398437 9.308593 26.179688 24.035156 50.425782 43.859375 72.238282l-28.261719 5.59375c-4.0625.804687-6.703125 4.75-5.898437 8.8125.804687 4.0625 4.753906 6.695312 8.8125 5.902343l47.441406-9.394531c12.574218-2.488281 25.878906-.257812 37.472656 6.28125 7.480469 4.222656 16.601562 7.421875 23.574219 9.511719l-160.984375.089843c-4.832032.003907-9.453125 2.066407-12.679688 5.664063-3.222656 3.597656-4.773437 8.414063-4.253906 13.21875l16.277344 149.886719-4.585938.003906c-7.941406 0-12.386718 5.386719-12.578125 5.597656l-18.488281-41.1875c-3.964844-8.832031-3.417969-19.097656 1.464844-27.457031l16.714844-28.628906c2.089843-3.574219.882812-8.167969-2.695313-10.257813-3.574219-2.089844-8.167969-.882812-10.257813 2.695313l-16.714843 28.625c-7.320313 12.535156-8.140625 27.921875-2.195313 41.164062l24.691406 55.003907c1.96875 5.382812 5.800782 9.789062 10.855469 12.476562 2.722657 1.769531 5.894531 2.71875 9.226563 2.71875h356.476562c3.507813-.003906 6.855469-1.265625 9.671875-3.234375 4.839844-2.753906 8.5-7.117187 10.363281-12.371094l24.042969-55.175781c5.683594-13.050781 4.828125-28.203125-2.292969-40.53125zm-143.632812-128.285156s-10.347656-2.902344-25.949219-.445313l-.015625-19.195312c1.105469-1.082031 4.097656-4.058594 4.097656-4.058594 13.359376-13.261719 29.917969-29.695313 31.089844-54.113281 3.3125-.101563 6.871094-.847656 10.113282-2.851563 3.105468-1.921875 7.109374-5.78125 8.542968-13.335937l2.242188-12.394532c14.480468 5.328126 20.894531 10.394532 22.804687 13.578126-.785156 3.285156-2.582031 10.195312-5.652343 18.832031-9.609376 27.035156-25.507813 51.910156-47.273438 73.984375zm-120.664062-34.296875c-12.34375-12.222657-26.332032-26.078125-26.761719-45.289063l-.023438-36.445312c22.359375-4.28125 47.578125-6.761719 70.386719-6.804688 23.144531.015625 48.734375 2.535156 71.320312 6.898438l.019532 36.269531c-.40625 19.210937-14.378906 33.082031-26.710938 45.324219 0 0-22.746094 24.507812-44.101562 24.507812-20.976563 0-44.128906-24.460937-44.128906-24.460937zm-41.769532-58.425781c-2.164062 0-3.535156-2.199219-3.851562-3.847657l-2.648438-14.53125c1.449219-.394531 5.820313-1.515625 6.488282-1.675781zm171.707032-.101563-.011719-19.828125c.4375.109375 4.800781 1.230469 6.445312 1.683594 0 0-2.574219 14.203125-2.578125 14.234375-.398437 2.214843-1.496094 3.71875-3.855468 3.910156zm-86.402344-164.578125c53.066406.410156 119.128906 84.296875 129.367187 144.726562-8.992187-5.320312-21.675781-10.066406-37.988281-14.191406-27.0625-6.84375-61.195312-10.945312-91.320312-10.96875-30.003907.058594-64.039063 4.175782-91.046876 11.011719-16.421874 4.15625-29.183593 8.9375-38.210937 14.292969 10.183594-60.457032 76.140625-144.398438 129.199219-144.871094zm-77.050782 257.234375c-21.683593-22.03125-37.523437-46.847656-47.109374-73.816406-3.058594-8.597657-4.851563-15.480469-5.640626-18.785157 2.027344-3.25 8.679688-8.414062 23.578126-13.8125l2.324218 12.761719c1.425782 7.488281 5.433594 11.351563 8.546875 13.269531 3.242188 2 6.800781 2.742188 10.113281 2.835938 1.203126 24.417969 17.773438 40.832031 31.148438 54.078125 0 0 2.40625 2.382813 3.195312 3.160156l.011719 19.609375c-13.144531-2.472656-26.167969.699219-26.167969.699219zm41.167969 3.535156-.003906-10.710937c9.527344 6.933594 21.15625 12.335937 36.402344 12.507812h.085937.089844c14.761719-.183594 26.132812-5.269531 35.480469-11.894531l.003906 10.601563c-2.558594 1.070312-5.054687 2.296874-7.46875 3.683593-8.675781 4.972657-21.113281 8.410157-26.0625 9.65625-1.304687.328125-2.691406.324219-4-.015625-4.917969-1.28125-17.3125-4.796875-26.144531-9.78125-2.722656-1.539062-5.523438-2.886718-8.382813-4.046875zm-138.421875 43.96875c-.078125-.746093.234375-1.269531.511719-1.582031.277344-.308594.765625-.675781 1.519531-.675781l345.804688-.199219c.75 0 1.238281.367188 1.515625.675781.277343.308594.59375.835938.511719 1.582031l-16.28125 151.519532-317.128907.183594zm353.273438 177.058594s-356.476563.203125-356.480469.203125c-1.070313 0-1.953125-.886719-1.953125-1.953125 0 0-.003906-6.832031-.003906-6.835937 0-1.035157.875-1.957032 1.953125-1.957032 0 0 356.476562-.203125 356.480469-.203125 1.070312 0 1.953124.886719 1.953124 1.953125l.003907 6.835938c0 1.078125-.875 1.957031-1.953125 1.957031zm0 0"/></svg>