<?xml version='1.0' encoding='iso-8859-1'?>
<svg version="1.1" xmlns="http://www.w3.org/2000/svg" viewBox="0 0 81.915 81.915" xmlns:xlink="http://www.w3.org/1999/xlink" enable-background="new 0 0 81.915 81.915">
  <g fill="#010002">
    <path d="m47.494,73.588c0.98,4.747 5.193,8.326 10.227,8.326 1.169,0 2.116-0.947 2.116-2.117 0-1.169-0.947-2.116-2.116-2.116-3.424,0-6.21-2.786-6.21-6.209 0-1.17-0.947-2.117-2.116-2.117h-16.74c-1.168,0-2.116,0.947-2.116,2.117 0,3.424-2.786,6.209-6.209,6.209-1.169,0-2.117,0.947-2.117,2.116 0,1.169 0.948,2.117 2.117,2.117h16.629c1.169,0 2.116-0.947 2.116-2.117 0-1.169-0.947-2.116-2.116-2.116h-8.239c0.887-1.195 1.524-2.586 1.836-4.093h12.938z"/>
    <path d="m16.999,34.305c1.584,11.032 10.629,19.682 21.844,20.659v5.707h-3.438c-1.169,0-2.116,0.948-2.116,2.117 0,1.169 0.947,2.117 2.116,2.117h11.107c1.17,0 2.117-0.948 2.117-2.117 0-1.169-0.947-2.117-2.117-2.117h-3.437v-5.711c3.855-0.336 7.567-1.576 10.841-3.654 0.987-0.627 1.279-1.935 0.652-2.922-0.627-0.986-1.934-1.277-2.922-0.652-3.189,2.026-6.886,3.097-10.687,3.098-11.015,0-19.978-8.962-19.978-19.978v-8.923c0-1.168-0.948-2.116-2.116-2.116-1.169,0-2.117,0.948-2.117,2.116v8.024c-2.409-0.577-4.532-2.115-5.807-4.301-0.811-1.392-1.24-2.985-1.24-4.608v-5.79h9.164c1.169,0 2.116-0.947 2.116-2.116v-8.905h17.274c1.169-8.88178e-16 2.116-0.948 2.116-2.117 0.001-1.168-0.947-2.116-2.116-2.116h-23.75c-1.169,0-2.117,0.948-2.117,2.116 0,1.169 0.947,2.117 2.117,2.117h2.244v6.787h-9.164c-1.169,0-2.117,0.948-2.117,2.117v7.906c0,2.371 0.628,4.702 1.816,6.74 2.078,3.563 5.694,5.951 9.715,6.522z"/>
    <path d="m56.042,4.233h4.893v26.618c0,3.455-0.896,6.86-2.59,9.845-0.577,1.016-0.221,2.308 0.796,2.885 0.329,0.188 0.688,0.276 1.043,0.276 0.736,0 1.452-0.386 1.843-1.072 1.487-2.621 2.459-5.509 2.887-8.49 6.506-0.911 11.533-6.498 11.533-13.252v-7.906c0-1.169-0.947-2.117-2.116-2.117h-9.162v-6.787h2.509c1.169,0 2.117-0.948 2.117-2.117-0.001-1.168-0.949-2.116-2.118-2.116h-11.635c-1.169,0-2.116,0.948-2.116,2.116 0,1.169 0.947,2.117 2.116,2.117zm16.172,11.02v5.79c0,4.324-3.013,7.948-7.046,8.908v-14.698h7.046z"/>
    <path d="m47.372,4.231c0.558,0 1.101-0.226 1.496-0.621 0.395-0.395 0.62-0.938 0.62-1.496 0-0.558-0.226-1.101-0.62-1.496-0.791-0.79-2.202-0.79-2.992,0-0.395,0.395-0.62,0.938-0.62,1.496 0,0.557 0.226,1.107 0.62,1.496 0.388,0.395 0.938,0.621 1.496,0.621z"/>
    <path d="m39.262,12.193l-5.408,7.256c-0.698,0.938-0.504,2.263 0.433,2.962 0.937,0.698 2.264,0.505 2.962-0.433l1.594-2.138v15.77h-3.291c-1.168,0-2.117,0.947-2.117,2.116 0,1.169 0.948,2.117 2.117,2.117h10.812c1.169,0 2.116-0.948 2.116-2.117 0-1.169-0.947-2.116-2.116-2.116h-3.289v-22.152c0-0.912-0.584-1.722-1.45-2.009-0.864-0.286-1.817,0.012-2.363,0.744z"/>
  </g>
</svg>
