<svg id="Layer_3" enable-background="new 0 0 64 64" height="512" viewBox="0 0 64 64" width="512" xmlns="http://www.w3.org/2000/svg"><path d="m28 32.466-2.586 2.586 2.465 2.465c.34.34.812.535 1.293.535 1.008 0 1.828-.82 1.828-1.828 0-.488-.19-.947-.535-1.293z"/><path d="m45.015 9.056c1.327-1.326 3.089-2.056 4.964-2.056 3.872 0 7.021 3.149 7.021 7.021 0 1.875-.729 3.638-2.056 4.965l-4.772 4.772 2.828 2.828 4.772-4.772c2.082-2.082 3.228-4.85 3.228-7.793 0-6.077-4.943-11.021-11.021-11.021-2.944 0-5.712 1.146-7.793 3.228l-4.772 4.772 2.828 2.828z"/><path d="m30 23c-6.065 0-11 4.935-11 11s4.935 11 11 11 11-4.935 11-11-4.935-11-11-11zm6.933 8.533c.041.226.067.456.067.69 0 2.169-1.844 3.939-4.004 3.825.003.058.004.117.004.176 0 2.11-1.718 3.828-3.828 3.828-.235 0-.465-.026-.691-.068l-1.722 1.723-1.414-1.414 1.253-1.253c-.043-.039-.092-.068-.133-.109l-1.465-1.465-1.321 1.321-1.414-1.414 1.321-1.321-1-1 9.414-9.414 1 1 1.293-1.293 1.414 1.414-1.293 1.293 1.465 1.464c.041.041.07.09.109.133l1.305-1.304 1.414 1.414z"/><path d="m6.121 49.535c-.34-.34-.811-.535-1.293-.535-1.008 0-1.828.82-1.828 1.828 0 .481.195.953.535 1.293l1.879 1.879-1.465 1.465c-.612.612-.949 1.427-.949 2.293 0 1.788 1.454 3.242 3.242 3.242.866 0 1.681-.337 2.293-.949l1.465-1.465 1.879 1.879c.34.34.811.535 1.293.535 1.008 0 1.828-.82 1.828-1.828 0-.481-.195-.953-.535-1.293zm-.121 9.465c-.552 0-1-.448-1-1s.448-1 1-1 1 .448 1 1-.448 1-1 1z"/><path d="m10.394 50.98 2.585 2.585 6.099-6.073-2.585-2.585z"/><path d="m32 28.466-2.586 2.586 2.465 2.465c.34.34.812.535 1.293.535 1.008 0 1.828-.82 1.828-1.829 0-.481-.195-.953-.535-1.293z"/><path d="m54.964 31.378-22.342-22.342c-.801.153-1.433.786-1.586 1.585l22.342 22.342c.801-.152 1.433-.785 1.586-1.585z"/><path d="m50 34c0-1.022-.398-1.984-1.121-2.707l-16.172-16.172c-.713-.712-1.699-1.121-2.707-1.121s-1.994.409-2.707 1.121l-16.172 16.172c-.723.723-1.121 1.685-1.121 2.707 0 1.008.408 1.994 1.121 2.707l16.172 16.172c.713.713 1.699 1.121 2.707 1.121s1.994-.408 2.707-1.121l16.172-16.172c.713-.713 1.121-1.699 1.121-2.707zm-20-18c.552 0 1 .448 1 1s-.448 1-1 1-1-.448-1-1 .448-1 1-1zm-17 19c-.552 0-1-.448-1-1s.448-1 1-1 1 .448 1 1-.448 1-1 1zm17 17c-.552 0-1-.448-1-1s.448-1 1-1 1 .448 1 1-.448 1-1 1zm0-5c-7.168 0-13-5.832-13-13s5.832-13 13-13 13 5.832 13 13-5.832 13-13 13zm17-12c-.552 0-1-.448-1-1s.448-1 1-1 1 .448 1 1-.448 1-1 1z"/><path d="m49.979 9c-1.341 0-2.603.522-3.551 1.47l-4.772 4.772 7.102 7.102 4.772-4.772c.947-.949 1.47-2.209 1.47-3.551 0-2.769-2.252-5.021-5.021-5.021z"/><path d="m60 57c-.462 0-.894.113-1.285.301l-13.801-13.801-1.414 1.414 13.801 13.801c-.188.391-.301.823-.301 1.285 0 1.654 1.346 3 3 3s3-1.346 3-3-1.346-3-3-3z"/><path d="m56.184 44h-4.77l-3.5-3.5-1.414 1.414 4.086 4.086h5.598c.414 1.161 1.514 2 2.816 2 1.654 0 3-1.346 3-3s-1.346-3-3-3c-1.302 0-2.402.839-2.816 2z"/><path d="m46 56.184v-5.598l-4.086-4.086-1.414 1.414 3.5 3.5v4.77c-1.161.414-2 1.514-2 2.816 0 1.654 1.346 3 3 3s3-1.346 3-3c0-1.302-.839-2.402-2-2.816z"/><path d="m5.285 6.699 13.8 13.8 1.414-1.414-13.8-13.8c.188-.391.301-.823.301-1.285 0-1.654-1.346-3-3-3s-3 1.346-3 3 1.346 3 3 3c.462 0 .894-.113 1.285-.301z"/><path d="m7.816 20h4.77l3.5 3.5 1.414-1.414-4.086-4.086h-5.598c-.414-1.161-1.514-2-2.816-2-1.654 0-3 1.346-3 3s1.346 3 3 3c1.302 0 2.402-.839 2.816-2z"/><path d="m18 7.816v5.598l4.086 4.086 1.414-1.414-3.5-3.5v-4.77c1.161-.414 2-1.514 2-2.816 0-1.654-1.346-3-3-3s-3 1.346-3 3c0 1.302.839 2.402 2 2.816z"/></svg>