<svg id="Fill_out_line" height="512" viewBox="0 0 512 512" width="512" xmlns="http://www.w3.org/2000/svg" data-name="Fill out line"><path d="m488 264a63.99511 63.99511 0 0 1 -64 64h-328a71.99672 71.99672 0 0 1 -19.26-141.37c0-.01-.01-.03-.01-.04a128.01239 128.01239 0 1 1 251.24-37.18 55.79491 55.79491 0 0 1 15.84009-4.81 56.68868 56.68868 0 0 1 8.18991-.6 55.99742 55.99742 0 0 1 56 56h16a63.99508 63.99508 0 0 1 64 64z" fill="#3ea7ff"/><path d="m120 296h208v64h-208z" fill="#ccc"/><path d="m120 232h208v64h-208z" fill="#e6e6e6"/><path d="m328 296h64v64h-64z" fill="#b3b3b3"/><path d="m328 232h64v64h-64z" fill="#ccc"/><circle cx="256" cy="432.167" fill="#3ea7ff" r="15.833"/><path d="m152 320h16v16h-16z"/><path d="m184 320h16v16h-16z"/><path d="m216 320h48v16h-48z"/><path d="m152 256h16v16h-16z"/><path d="m184 256h16v16h-16z"/><path d="m216 256h48v16h-48z"/><path d="m233.85132 424h-113.85132a8.00008 8.00008 0 0 0 -8 8v64h16v-56h105.85132a23.6683 23.6683 0 0 0 14.14868 14.14862v41.85138h16v-41.85138a23.6683 23.6683 0 0 0 14.14868-14.14862h105.85132v56h16v-64a8.00008 8.00008 0 0 0 -8-8h-113.85132a23.6683 23.6683 0 0 0 -14.14868-14.14862v-41.85138h128a8.00008 8.00008 0 0 0 8-8v-128a8.00008 8.00008 0 0 0 -8-8h-272a8.00008 8.00008 0 0 0 -8 8v128a8.00008 8.00008 0 0 0 8 8h128v41.85138a23.6683 23.6683 0 0 0 -14.14868 14.14862zm150.14868-72h-48v-48h48zm0-64h-48v-48h48zm-256-48h192v48h-192zm0 64h192v48h-192zm128 135.5498a7.5498 7.5498 0 1 1 7.5498-7.5498 7.5582 7.5582 0 0 1 -7.5498 7.5498z"/><path d="m424 192h-8.49707a64.00665 64.00665 0 0 0 -80.19751-53.78473c-6.93091-68.54108-64.96777-122.21527-135.30542-122.21527-74.99023 0-136 61.00928-136 136a136.42232 136.42232 0 0 0 3.21313 29.37634 79.98957 79.98957 0 0 0 28.78687 154.62366v-16a63.99625 63.99625 0 0 1 -24.397-123.16119 134.69676 134.69676 0 0 0 9.40188 21.05819l13.99024-7.76367a119.97857 119.97857 0 1 1 222.89941-35.624l15.71875 2.98144a136.92332 136.92332 0 0 0 2.35449-22.73858 48.01068 48.01068 0 0 1 64.03223 45.24781 8.00008 8.00008 0 0 0 8 8h16a56 56 0 0 1 0 112h-8v16h8a72 72 0 0 0 0-144z"/></svg>